HIERARCHY
ROOT root
{
	OFFSET 0.000000 0.000000 0.000000
	CHANNELS 6 Xposition Yposition Zposition Zrotation Yrotation Xrotation
	JOINT lhip
	{
		OFFSET 0.058581 -0.082280 -0.017664
		CHANNELS 3 Zrotation Yrotation Xrotation
		JOINT lknee
		{
			OFFSET 0.043451 -0.386469 0.008037
			CHANNELS 3 Zrotation Yrotation Xrotation
			JOINT lankle
			{
				OFFSET -0.014790 -0.426874 -0.037428
				CHANNELS 3 Zrotation Yrotation Xrotation
				JOINT ltoe
				{
					OFFSET 0.041054 -0.060286 0.122042
					CHANNELS 3 Zrotation Yrotation Xrotation
					End Site
					{
						OFFSET 0.000000 0.000000 0.000000
					}
				}
			}
		}
	}
	JOINT rhip
	{
		OFFSET -0.060310 -0.090513 -0.013543
		CHANNELS 3 Zrotation Yrotation Xrotation
		JOINT rknee
		{
			OFFSET -0.043257 -0.383688 -0.004843
			CHANNELS 3 Zrotation Yrotation Xrotation
			JOINT rankle
			{
				OFFSET 0.019056 -0.420046 -0.034562
				CHANNELS 3 Zrotation Yrotation Xrotation
				JOINT rtoe
				{
					OFFSET -0.034840 -0.062106 0.130323
					CHANNELS 3 Zrotation Yrotation Xrotation
					End Site
					{
						OFFSET 0.000000 0.000000 0.000000
					}
				}
			}
		}
	}
	JOINT lowerback
	{
		OFFSET 0.004439 0.124404 -0.038385
		CHANNELS 3 Zrotation Yrotation Xrotation
		JOINT upperback
		{
			OFFSET 0.004488 0.137956 0.026820
			CHANNELS 3 Zrotation Yrotation Xrotation
			JOINT chest
			{
				OFFSET -0.002265 0.056032 0.002855
				CHANNELS 3 Zrotation Yrotation Xrotation
				JOINT lowerneck
				{
					OFFSET -0.013390 0.211636 -0.033468
					CHANNELS 3 Zrotation Yrotation Xrotation
					JOINT upperneck
					{
						OFFSET 0.010113 0.088937 0.050410
						CHANNELS 3 Zrotation Yrotation Xrotation
						End Site
						{
							OFFSET 0.000000 0.000000 0.000000
						}
					}
				}
				JOINT lclavicle
				{
					OFFSET 0.071702 0.114000 -0.018898
					CHANNELS 3 Zrotation Yrotation Xrotation
					JOINT lshoulder
					{
						OFFSET 0.122921 0.045205 -0.019046
						CHANNELS 3 Zrotation Yrotation Xrotation
						JOINT lelbow
						{
							OFFSET 0.255332 -0.015649 -0.022946
							CHANNELS 3 Zrotation Yrotation Xrotation
							JOINT lwrist
							{
								OFFSET 0.265709 0.012698 -0.007375
								CHANNELS 3 Zrotation Yrotation Xrotation
								End Site
								{
									OFFSET 0.000000 0.000000 0.000000
								}
							}
						}
					}
				}
				JOINT rclavicle
				{
					OFFSET -0.082954 0.112472 -0.023707
					CHANNELS 3 Zrotation Yrotation Xrotation
					JOINT rshoulder
					{
						OFFSET -0.113228 0.046853 -0.008472
						CHANNELS 3 Zrotation Yrotation Xrotation
						JOINT relbow
						{
							OFFSET -0.260127 -0.014369 -0.031269
							CHANNELS 3 Zrotation Yrotation Xrotation
							JOINT rwrist
							{
								OFFSET -0.269108 0.006794 -0.006027
								CHANNELS 3 Zrotation Yrotation Xrotation
								End Site
								{
									OFFSET 0.000000 0.000000 0.000000
								}
							}
						}
					}
				}
			}
		}
	}
}
MOTION
Frames: 16
Frame Time: 0.033333
1.039683 0.186148 0.966587 -77.266365 9.041631 78.500647 6.275098 -2.956884 16.216039 -5.728886 -28.534714 20.604192 7.253565 12.744140 -33.140943 0.000000 -0.000000 0.000000 -7.057730 -2.112379 -23.785238 2.530865 -7.103553 25.735983 6.264802 -10.735585 -4.636727 0.000000 -0.000000 0.000000 -3.952056 -2.144379 8.137016 4.597313 -1.937078 7.533600 2.032599 -3.862158 7.983687 10.150902 3.035406 10.263564 5.204131 -1.895737 10.811121 -20.081946 9.595041 4.517409 -58.568269 -8.017456 8.940908 7.943492 -28.183668 7.802997 4.637576 -2.630684 -13.693262 24.573432 -7.924661 0.511172 60.600138 -0.117194 11.995399 -16.136010 26.008428 -3.815433 4.941418 0.761381 -8.521937 
1.023341 0.190530 0.963672 -76.305432 9.651211 77.931483 7.816589 -2.914193 17.670656 -6.118900 -29.540057 21.084472 7.036824 12.589390 -33.965317 0.000000 -0.000000 0.000000 -8.309731 -2.873056 -23.340832 2.780017 -6.125422 21.289295 7.194840 -10.382328 -0.686103 0.000000 -0.000000 0.000000 -4.098875 -2.311350 7.740936 4.750609 -2.072481 7.849648 2.232474 -4.031502 7.768837 10.278997 1.692512 10.762979 5.769336 -2.462079 10.444290 -19.871898 10.035089 4.985674 -57.840251 -8.460747 8.651031 7.450724 -28.521729 7.947852 4.784855 -2.739426 -14.257200 24.731582 -8.574181 0.668101 60.534356 -0.947438 11.783391 -15.786371 25.368765 -3.903970 4.575743 0.560288 -7.750805 
1.006405 0.195653 0.960439 -75.538567 10.009557 77.462806 9.164874 -2.782691 19.079788 -6.365880 -30.192200 21.449640 6.714272 12.343219 -34.674118 0.000000 -0.000000 0.000000 -9.496234 -3.569672 -22.950494 2.714981 -5.629031 17.466932 8.255273 -10.494156 4.007407 0.000000 -0.000000 0.000000 -4.460138 -2.512415 7.313091 4.742577 -2.160563 8.079780 2.377770 -4.098287 7.704252 10.153392 1.737136 11.781676 6.098671 -1.633380 10.782665 -19.605816 10.458639 5.366644 -57.059030 -8.824483 8.333862 7.088456 -29.109021 8.068291 5.095359 -2.620093 -14.192138 25.053664 -9.319694 0.759149 60.422641 -1.476515 11.641897 -15.502540 24.744861 -4.268941 4.472019 0.257300 -7.145257 
0.989060 0.200938 0.956915 -74.907353 10.245670 77.028554 10.425677 -2.801668 20.540596 -6.670223 -30.757486 21.715613 6.156577 12.142649 -35.236217 0.000000 -0.000000 0.000000 -10.472575 -4.307917 -22.677615 2.661635 -5.694735 14.904335 9.258734 -10.734543 7.779919 0.000000 -0.000000 0.000000 -4.880936 -2.752404 7.256781 4.698518 -2.161256 8.035458 2.536970 -4.214865 7.549554 10.031336 1.075787 12.117252 6.424447 -1.732498 10.583525 -19.547868 10.927828 5.652711 -55.930455 -8.823417 8.049728 6.486552 -30.160927 8.759347 4.777245 -3.110219 -13.991726 25.184682 -9.710271 0.884938 60.311266 -2.074842 11.388989 -15.143434 24.201591 -4.480394 4.759131 0.179234 -6.627635 
0.968676 0.207593 0.952589 -73.546964 10.253193 76.931308 11.778528 -3.109381 21.694345 -7.096907 -31.378275 21.994496 5.811032 11.666130 -35.932218 0.000000 -0.000000 0.000000 -11.650394 -5.993390 -22.167223 2.841917 -6.382704 13.234387 9.971840 -11.259816 11.271255 0.000000 -0.000000 0.000000 -5.656229 -2.666675 6.099345 4.609581 -2.976801 8.968761 2.588305 -4.451778 7.558090 10.219817 1.117651 12.436584 6.912271 -1.629678 10.376288 -19.379456 11.357415 6.028801 -54.602552 -9.070918 7.883052 5.714901 -31.405114 9.514360 5.130436 -3.381828 -14.257756 25.639981 -10.527128 0.866237 60.169741 -2.615075 11.349341 -14.997472 24.314983 -4.323322 4.883421 0.062978 -6.161242 
0.949044 0.214934 0.948739 -72.356932 10.258214 76.720097 13.248114 -3.215277 22.639386 -7.596987 -31.870762 22.712626 5.234352 11.059802 -35.927761 0.000000 -0.000000 0.000000 -12.617917 -6.819309 -21.205751 3.038753 -7.333759 11.671194 10.697374 -12.132190 14.952469 0.000000 -0.000000 0.000000 -6.448081 -2.711083 6.019221 4.577408 -3.416078 9.135631 2.838067 -4.768648 7.462121 10.311827 0.001233 13.077825 7.338732 -1.796782 10.212027 -19.349134 11.628781 6.516840 -53.572589 -9.337154 7.512639 5.177563 -32.389217 9.953805 5.521675 -3.395579 -13.855831 25.698982 -10.919587 0.829986 59.982810 -3.248828 11.010257 -14.536726 24.035058 -4.621972 4.891866 -0.146714 -5.859227 
0.927553 0.223842 0.944458 -71.278576 10.208565 76.718314 14.879431 -3.279452 23.586051 -7.906008 -32.589428 23.008269 4.394053 10.451512 -36.089830 0.000000 -0.000000 0.000000 -13.191127 -7.473966 -20.460568 3.212688 -7.394991 11.248008 11.362916 -12.157370 18.335363 0.000000 -0.000000 0.000000 -6.989253 -2.745657 6.097585 4.503822 -3.590069 8.836888 2.735681 -5.099736 7.295355 10.377138 0.300040 13.742568 7.388617 -1.621282 10.687651 -18.898459 12.123148 6.655715 -52.577036 -9.458487 7.257788 3.938520 -33.207661 11.228803 5.704724 -3.790970 -13.514528 25.910863 -11.858816 0.589199 59.785290 -3.997728 11.007137 -14.072780 24.012802 -4.436372 4.378019 0.096981 -5.341063 
0.906468 0.233232 0.940349 -70.302242 9.940945 76.990004 16.163878 -3.562480 24.117463 -8.311181 -33.058115 23.579072 3.791136 9.911656 -35.752344 0.000000 -0.000000 0.000000 -13.562917 -7.706596 -20.005172 3.500393 -6.466992 11.383698 11.945139 -11.927231 22.834264 0.000000 -0.000000 0.000000 -7.577013 -2.663613 5.790431 4.501178 -3.734048 9.336971 2.760872 -5.198868 7.148484 10.320454 0.040457 14.109262 7.871636 -1.514091 10.231065 -19.031170 11.938399 6.682673 -51.510657 -9.665124 7.346874 3.456954 -34.235041 11.660283 5.669975 -4.028363 -13.327336 26.110959 -11.983867 0.534260 59.557613 -4.537365 10.988974 -13.849156 23.854276 -4.797765 4.542631 0.253358 -5.481195 
0.885590 0.243731 0.935727 -69.733180 9.392112 77.657969 17.111541 -3.671536 24.318386 -8.519533 -33.178769 23.859448 3.403894 9.644068 -35.105524 0.000000 -0.000000 0.000000 -13.554490 -7.821468 -20.192648 3.863544 -5.554181 12.482503 12.448700 -11.563148 26.443899 0.000000 -0.000000 0.000000 -7.942897 -2.586004 5.503677 4.405095 -3.551713 9.617679 2.670553 -5.188077 6.739849 9.968682 -0.506897 14.456484 8.078451 -1.465879 10.318396 -19.163764 11.787407 6.873539 -50.873969 -9.902034 7.208331 3.480694 -35.436359 11.534591 5.781115 -3.925146 -13.068591 25.927864 -12.071661 0.993929 59.720521 -4.838627 10.876034 -13.527930 23.859594 -4.452503 4.491773 0.301689 -5.115129 
0.863786 0.254805 0.930309 -68.866586 8.470066 78.865317 17.605148 -4.096545 24.069729 -8.578628 -32.963705 23.858211 2.852622 9.319668 -34.207387 0.000000 -0.000000 0.000000 -13.309390 -8.190744 -20.925140 3.816440 -4.551731 15.121991 12.962706 -11.106730 29.266009 0.000000 -0.000000 0.000000 -8.303290 -2.492204 5.014187 4.289015 -3.474660 9.749155 2.471202 -5.192144 6.646956 9.763650 -0.574284 14.329790 8.411093 -1.578807 10.488899 -19.044860 11.711659 6.779949 -50.720921 -10.285210 7.430294 3.483621 -36.565197 11.399331 5.517153 -3.905358 -13.826293 25.567796 -12.206462 1.099746 60.105629 -5.041006 11.050735 -13.456564 23.879414 -4.123729 5.172763 -0.308803 -5.355454 
0.840762 0.267122 0.924133 -67.977947 7.212754 80.166007 17.904626 -4.516732 23.837588 -8.542225 -33.034743 23.701355 1.265883 8.807286 -33.922842 0.000000 -0.000000 0.000000 -13.279894 -8.315909 -21.510169 3.740873 -5.831407 18.890392 12.649316 -10.888184 17.285006 0.000000 -0.000000 0.000000 -8.600214 -2.612993 4.987633 3.914315 -3.348583 9.387895 2.203700 -5.031992 6.830224 10.547622 0.047405 13.624333 7.951024 -2.854872 11.015530 -18.933713 11.818595 6.324523 -50.823378 -10.591377 7.672745 3.402466 -37.356737 11.325433 5.756464 -3.763160 -14.671751 25.454783 -12.311852 1.045723 60.215757 -5.361239 10.719720 -13.371442 24.334007 -3.383138 5.985316 -0.329014 -5.729324 
0.821347 0.281221 0.919669 -68.545394 5.986153 81.579765 17.960375 -4.574509 23.376199 -8.702900 -32.491915 23.903385 0.720356 8.313814 -32.731404 0.000000 -0.000000 0.000000 -13.236678 -8.453829 -22.822484 4.202535 -7.257303 20.525144 11.014576 -9.712751 10.657814 0.000000 -0.000000 0.000000 -8.095488 -2.326060 5.678934 3.448701 -2.644148 8.868698 1.706119 -4.825697 6.844396 11.072704 1.060347 12.507643 7.557048 -3.396461 11.130108 -19.349668 11.706674 5.497246 -50.974349 -10.889329 7.687969 3.722698 -37.868549 10.743419 5.705236 -3.605221 -14.690218 25.754643 -11.893862 0.982031 59.831890 -4.741711 10.479820 -13.287701 24.424683 -3.427016 5.709091 -0.290442 -5.487970 
0.805594 0.296026 0.918337 -70.378619 5.335774 83.144652 18.171450 -3.823856 22.522850 -8.689038 -31.978966 24.596067 0.187800 7.735697 -30.512534 0.000000 -0.000000 0.000000 -12.195509 -7.680287 -26.449925 4.412464 -6.876693 24.426491 10.057982 -8.364229 6.905675 0.000000 -0.000000 0.000000 -7.055600 -2.426841 6.921433 3.280596 -1.408565 8.671945 1.338553 -4.467399 6.643023 11.036325 2.038641 11.204359 6.860414 -2.833760 11.458206 -20.089433 11.345311 4.577804 -52.080832 -11.163420 7.995078 5.179732 -37.751190 8.820399 6.295177 -3.584948 -15.058762 25.610863 -11.160156 0.748019 59.372627 -3.488391 10.659520 -13.658992 24.980680 -3.489082 6.223706 -0.276622 -5.633665 
0.791123 0.310751 0.920061 -72.878214 5.139990 84.706732 18.066166 -3.512733 22.057657 -8.229933 -31.068477 24.814046 -1.161257 7.241864 -26.796847 0.000000 -0.000000 0.000000 -10.249412 -6.098709 -29.197209 4.332371 -6.634580 26.184500 8.557921 -7.195007 4.300218 0.000000 -0.000000 0.000000 -6.098450 -3.088553 8.514865 3.105884 -0.803298 8.622276 1.372951 -3.990025 6.044126 10.369725 2.990828 10.982508 6.603765 -1.441422 10.685300 -20.545548 10.741005 4.543055 -53.847993 -10.610169 8.005609 6.715500 -37.922894 6.600648 7.038471 -2.938784 -15.967235 24.660627 -9.400126 1.649314 59.077265 -1.920246 10.698892 -14.712197 27.248949 -3.537567 4.125370 0.287643 -5.498673 
0.775249 0.324481 0.924527 -73.353320 4.761330 86.481067 18.539055 -3.416844 20.978744 -7.727829 -30.809444 24.257626 -2.519784 6.201782 -22.674148 0.000000 -0.000000 0.000000 -9.418520 -5.360023 -30.067477 4.433336 -7.401692 25.938978 6.915126 -6.805832 2.895995 0.000000 -0.000000 0.000000 -5.374282 -4.109244 9.671025 3.010341 -1.513355 9.039260 1.434279 -4.298352 5.270416 9.539804 3.652012 11.020408 6.352423 -0.268078 10.015091 -21.039437 9.469741 5.149045 -54.669025 -9.971755 8.081683 7.229081 -37.886432 5.960428 6.483428 -2.589805 -17.123959 23.872243 -8.133283 2.053532 58.526102 -1.017109 10.470695 -15.520214 30.329192 -3.858795 3.696662 0.996684 -6.871490 
0.761270 0.337264 0.930692 -73.992767 3.841794 88.421275 18.347013 -2.907245 19.322546 -7.355914 -29.574501 23.869939 -3.484140 4.834892 -17.407175 0.000000 -0.000000 0.000000 -9.204695 -4.597466 -31.496562 4.356250 -7.820789 25.937287 6.298736 -6.445177 2.218203 0.000000 -0.000000 0.000000 -5.072580 -4.699474 10.712463 2.943887 -2.169876 9.271065 1.198344 -4.737710 4.900889 9.077725 5.889136 10.292024 5.442715 1.176279 10.123621 -20.933702 8.165794 4.973096 -54.991657 -10.155007 8.783166 6.323200 -37.308426 7.665420 5.181570 -3.104595 -16.142902 23.488270 -7.624687 1.862991 58.381168 0.281702 11.013486 -16.797237 32.641428 -4.844442 3.371187 1.252121 -7.880213 
